<?xml version="1.0" encoding="utf-8"?>
<!-- Generator: Adobe Illustrator 26.0.2, SVG Export Plug-In . SVG Version: 6.00 Build 0)  -->
<svg version="1.1" id="Layer_1" xmlns="http://www.w3.org/2000/svg" xmlns:xlink="http://www.w3.org/1999/xlink" x="0px" y="0px"
	 viewBox="0 0 279 105" style="enable-background:new 0 0 279 105;" xml:space="preserve">
<style type="text/css">
	.st0{fill:#102548;}
	.st1{fill-rule:evenodd;clip-rule:evenodd;fill:#102548;}
	.st2{fill:#F47920;}
	.st3{clip-path:url(#SVGID_00000062185312255006552910000015809229369110551196_);}
	.st4{fill:#FAEB4D;}
	.st5{fill:#FFFFFF;}
</style>
<g>
	<path class="st0" d="M65.8,42c0.2,0.2,0.5,0.5,0.7,0.7c0.2,0.2,0.5,0.4,0.8,0.6c0.4,0.3,0.8,0.5,1.3,0.6c0.4,0.1,0.7,0.2,1.1,0.2
		c0.4,0,0.7-0.1,1.1-0.3c0.3-0.2,0.4-0.6,0.4-0.9c0-0.2-0.1-0.4-0.3-0.6c-0.2-0.2-0.5-0.4-0.8-0.5c-0.4-0.2-0.8-0.4-1.2-0.5
		c-0.5-0.2-0.9-0.4-1.4-0.6c-1-0.5-1.8-1.2-2.6-2c-0.8-1-1.3-2.3-1.2-3.6c0-1.7,0.8-3.3,2.2-4.4c1.6-1.3,3.6-2,5.6-1.9
		c1,0,2,0.1,3,0.4c1.1,0.3,2.2,0.7,3.3,1.2l-2.4,5.3c-0.1-0.1-0.3-0.2-0.4-0.4c-0.1-0.1-0.3-0.2-0.4-0.3c-0.4-0.3-0.8-0.5-1.3-0.7
		c-0.3-0.1-0.7-0.2-1-0.2c-0.3,0-0.5,0.1-0.7,0.2c-0.2,0.1-0.3,0.3-0.4,0.5c0,0,0,0.1,0,0.1c0,0,0,0.1,0,0.1c0,0,0,0.1,0,0.1
		c0,0,0,0.1,0,0.1c0,0.3,0.2,0.7,0.4,0.9c0.4,0.3,0.7,0.5,1.1,0.7l0.9,0.4c0.3,0.1,0.7,0.3,1,0.5c0.8,0.4,1.5,0.9,2.2,1.5
		c0.7,0.8,1.2,1.8,1.3,2.9c0,0.1,0,0.2,0,0.3c0,0.1,0,0.2,0,0.3v0.1c0,0.1,0,0.2,0,0.3c0,0.1,0,0.2,0,0.3c0,2.1-0.8,3.7-2.4,4.7
		c-1.6,1-3.3,1.5-5.2,1.6H70c-1.3,0-2.6-0.2-3.8-0.6c-1-0.3-2-0.8-2.8-1.5L65.8,42L65.8,42z"/>
	<polygon class="st0" points="85.1,49.2 79.8,28.8 87.5,28.8 89.1,41.5 91.4,28.8 98,28.8 99.6,41.5 101.9,28.8 109.4,28.8 
		103.4,49.2 96.2,49.2 94.4,36.9 92.3,49.2 85.1,49.2 	"/>
	<path class="st1" d="M121.3,45.9c-0.4,1-1.1,1.8-1.9,2.5c-0.7,0.6-1.6,1-2.5,1.1h-0.4c-0.1,0-0.2,0-0.4,0h-0.3c-0.1,0-0.2,0-0.3,0
		c-1.4-0.2-2.6-1.1-3.8-2.7c-1.1-1.6-1.7-4.1-1.7-7.4c0,0,0-0.1,0-0.1c0-0.1,0-0.1,0-0.2c0-0.1,0-0.1,0-0.2c0,0,0-0.1,0-0.1
		c0.1-3.2,0.7-5.6,1.8-7.2c1.1-1.6,2.4-2.4,3.7-2.6c0.1,0,0.2,0,0.2,0h0.2h0.5c0.2,0,0.4,0.1,0.5,0.1c0.9,0.2,1.7,0.6,2.4,1.2
		c0.8,0.7,1.4,1.5,1.8,2.5l-0.3-3.4h7.5v19.8H121L121.3,45.9L121.3,45.9z M119.5,35.1c-0.6,0-1,0.4-1.4,1.2
		c-0.4,0.8-0.6,1.7-0.7,2.6c0,0.1,0,0.2,0,0.4v0.4c0,1,0.1,2,0.4,3c0.3,0.9,0.8,1.3,1.4,1.3s1.1-0.4,1.5-1.3
		c0.4-0.9,0.6-1.8,0.7-2.8V39c0-0.9-0.2-1.8-0.5-2.6C120.6,35.5,120.1,35.1,119.5,35.1L119.5,35.1z"/>
	<polygon class="st0" points="133.5,49.2 133.5,35.1 131.2,35.1 131.2,28.8 133.5,28.8 133.5,23.1 141,23.1 141,28.8 143.5,28.8 
		143.5,35.1 141,35.1 141,49.2 133.5,49.2 	"/>
	<polygon class="st1" points="145.5,49.2 145.5,28.8 153.4,28.8 153.4,49.2 145.5,49.2 	"/>
	<path class="st0" d="M156.4,49.2V28.8h7.5l-0.3,4.2c0.4-1.1,1.1-2.2,2-3c0.7-0.6,1.5-1.1,2.5-1.3c0.2-0.1,0.3-0.1,0.5-0.1
		c0.2,0,0.3,0,0.5,0c1.4,0,2.8,0.7,3.7,1.8c1.2,1.3,1.8,3,1.7,4.8v14h-7.5V38.1c0-0.5-0.1-1-0.4-1.4c-0.2-0.3-0.5-0.5-0.8-0.6h-0.2
		c-0.1,0-0.1,0-0.2,0c-0.1,0-0.1,0-0.2,0.1c-0.4,0.1-0.7,0.4-0.9,0.7c-0.3,0.4-0.4,0.8-0.4,1.3v11.1L156.4,49.2z"/>
	<polygon class="st1" points="177.5,49.2 177.5,28.8 185.3,28.8 185.3,49.2 177.5,49.2 	"/>
	<polygon class="st0" points="46,51.5 278.8,51.5 278.8,53.5 46,53.5 46,51.5 	"/>
	<path class="st2" d="M269.3,83.2c-7.9-11.6-14.2-15.2-25.5-19.6c-7.3-2.7-15-4.2-22.8-4.5v-2.6h58v42.6
		C279,98.9,277.2,94.8,269.3,83.2L269.3,83.2z"/>
	<g>
		<defs>
			<path id="SVGID_1_" d="M269.3,83.2c-7.9-11.6-14.2-15.2-25.5-19.6c-7.3-2.7-15-4.2-22.8-4.5v-2.6h58v42.6
				C279,98.9,277.2,94.8,269.3,83.2L269.3,83.2z"/>
		</defs>
		<clipPath id="SVGID_00000031197911005879485370000000148815943485361321_">
			<use xlink:href="#SVGID_1_"  style="overflow:visible;"/>
		</clipPath>
		<g style="clip-path:url(#SVGID_00000031197911005879485370000000148815943485361321_);">
			<polygon class="st4" points="269.4,55.4 280.8,55.4 280.8,99.4 269.4,99.4 269.4,55.4 			"/>
		</g>
	</g>
	<path class="st0" d="M172.2,22.3c0-2.3,4.1-4.1,9.1-4.1c5,0,9.1,1.9,9.1,4.1s-4.1,4.1-9.1,4.1S172.2,24.6,172.2,22.3z"/>
	<polygon class="st0" points="261.9,13.1 265.7,13.1 265.7,36.8 272.7,29.8 278,29.8 269.8,37.6 278.9,49 273.7,49 266.9,40.5 
		265.7,41.6 265.7,48.9 261.9,48.9 261.9,13.1 	"/>
	<path class="st0" d="M238.4,29.4h4v2.4c0.5-0.9,2.2-3,6.1-3c7.1,0,6.7,8.2,6.7,8.2V49h-4V37c0,0,0.3-4.7-4-4.7
		c-3.4,0-4.5,2.4-4.9,4V49h-4L238.4,29.4L238.4,29.4z"/>
	<path class="st1" d="M190.2,19.7h9.8c4.9,0,8.8,3.5,8.8,7.9c-0.1,2.9-1.7,5.5-4.3,6.8c2.6,1.3,4.2,3.9,4.3,6.7c0,4.4-4,7.9-8.8,7.9
		h-9.9V25.1c0.9-0.6,1.6-1.6,1.6-2.8C191.7,21.3,191.1,20.3,190.2,19.7L190.2,19.7z M194.3,22.9h4.9c2.9,0,5.3,2.2,5.3,4.8
		s-2.4,4.8-5.3,4.8h-4.9V22.9L194.3,22.9z M194.3,35.9h4.2c3.4,0,6.2,2.1,6.2,4.8c0,2.6-2.8,4.8-6.2,4.8h-4.2V35.9L194.3,35.9z"/>
	<path class="st1" d="M212.3,39.2c0-5.8,4.1-10.5,9.1-10.5c2.8,0.1,5.5,1.5,7,3.8v-3.2h3.8v19.6h-3.8v-3.1c-1.6,2.4-4.2,3.8-7,3.8
		C216.4,49.7,212.3,45,212.3,39.2L212.3,39.2z M216.4,39.2c0-3.8,2.7-6.9,6-6.9s6,3.1,6,6.9s-2.7,6.9-6,6.9S216.4,43,216.4,39.2z"/>
	<path class="st0" d="M0,35.1c0-16,8.7-29,19.5-29s19.5,13,19.5,29s-8.7,29-19.5,29S0,51.2,0,35.1z"/>
	<polygon class="st5" points="10.4,16.7 16.6,16.7 16.6,18.1 10.4,18.1 10.4,16.7 	"/>
	<polygon class="st5" points="10.4,19.7 16.6,19.7 16.6,21.2 10.4,21.2 10.4,19.7 	"/>
	<polygon class="st5" points="10.4,22.8 16.6,22.8 16.6,24.3 10.4,24.3 10.4,22.8 	"/>
	<polygon class="st5" points="10.4,25.8 16.6,25.8 16.6,27.3 10.4,27.3 10.4,25.8 	"/>
	<polygon class="st5" points="10.4,28.9 16.6,28.9 16.6,30.4 10.4,30.4 10.4,28.9 	"/>
	<polygon class="st5" points="22.3,16.7 28.5,16.7 28.5,18.1 22.3,18.1 22.3,16.7 	"/>
	<polygon class="st5" points="22.3,19.7 28.5,19.7 28.5,21.2 22.3,21.2 22.3,19.7 	"/>
	<polygon class="st5" points="22.3,22.8 28.5,22.8 28.5,24.3 22.3,24.3 22.3,22.8 	"/>
	<polygon class="st5" points="22.3,25.8 28.5,25.8 28.5,27.3 22.3,27.3 22.3,25.8 	"/>
	<polygon class="st5" points="22.3,28.9 28.5,28.9 28.5,30.4 22.3,30.4 22.3,28.9 	"/>
	<polygon class="st5" points="10.4,41.1 16.6,41.1 16.6,42.6 10.4,42.6 10.4,41.1 	"/>
	<polygon class="st5" points="10.4,44.2 16.6,44.2 16.6,45.6 10.4,45.6 10.4,44.2 	"/>
	<polygon class="st5" points="10.4,47.2 16.6,47.2 16.6,48.7 10.4,48.7 10.4,47.2 	"/>
	<polygon class="st5" points="10.4,50.3 16.6,50.3 16.6,51.7 10.4,51.7 10.4,50.3 	"/>
	<polygon class="st5" points="10.4,53.3 16.6,53.3 16.6,54.8 10.4,54.8 10.4,53.3 	"/>
	<polygon class="st5" points="22.3,41.1 28.5,41.1 28.5,42.6 22.3,42.6 22.3,41.1 	"/>
	<polygon class="st5" points="22.3,44.2 28.5,44.2 28.5,45.6 22.3,45.6 22.3,44.2 	"/>
	<polygon class="st5" points="22.3,47.2 28.5,47.2 28.5,48.7 22.3,48.7 22.3,47.2 	"/>
	<polygon class="st5" points="22.3,50.3 28.5,50.3 28.5,51.7 22.3,51.7 22.3,50.3 	"/>
	<polygon class="st5" points="22.3,53.3 28.5,53.3 28.5,54.8 22.3,54.8 22.3,53.3 	"/>
	<polygon class="st0" points="46,49.2 46,20.4 60.3,20.4 60.3,27 53.8,27 53.8,31.3 59.8,31.3 59.8,37.8 53.8,37.8 53.8,42.3 
		60.3,42.3 60.3,49.2 46,49.2 	"/>
	<path class="st0" d="M141.9,22.3c0-2.3,4.1-4.1,9.1-4.1c5,0,9.1,1.9,9.1,4.1s-4.1,4.1-9.1,4.1S141.9,24.6,141.9,22.3z"/>
</g>
</svg>
